<?xml version="1.0"?>
<svg xmlns="http://www.w3.org/2000/svg" xmlns:xlink="http://www.w3.org/1999/xlink" xmlns:svgjs="http://svgjs.com/svgjs" version="1.1" width="512" height="512" x="0" y="0" viewBox="0 0 512 512" style="enable-background:new 0 0 512 512" xml:space="preserve" class=""><g>
<g xmlns="http://www.w3.org/2000/svg">
	<path d="M512,346.5c0-63.535-36.447-120.238-91.039-147.819c-0.812,59.043-24.169,114.431-66.009,156.271   c-41.84,41.84-97.229,65.198-156.271,66.009C226.263,475.552,282.966,512,346.5,512c29.789,0,58.755-7.934,84.208-23.007   l80.57,22.286l-22.285-80.57C504.066,405.256,512,376.29,512,346.5z" fill="#ffffff" data-original="#000000" style="" class=""/>
	<path d="M391,195.5C391,87.701,303.299,0,195.5,0S0,87.701,0,195.5c0,35.132,9.353,69.34,27.11,99.373L0.721,390.279l95.406-26.389   C126.161,381.647,160.369,391,195.5,391C303.299,391,391,303.299,391,195.5z M270.5,240.5v30h-150v-30H270.5z M120.5,210.5v-30h150   v30H120.5z M270.5,150.5h-150v-30h150V150.5z" fill="#ffffff" data-original="#000000" style="" class=""/>
</g>















</g></svg>
