<?xml version="1.0"?>
<svg xmlns="http://www.w3.org/2000/svg" xmlns:xlink="http://www.w3.org/1999/xlink" xmlns:svgjs="http://svgjs.com/svgjs" version="1.1" width="512" height="512" x="0" y="0" viewBox="0 0 512 512" style="enable-background:new 0 0 512 512" xml:space="preserve" class=""><g><linearGradient xmlns="http://www.w3.org/2000/svg" id="a" gradientUnits="userSpaceOnUse" x1="0" x2="512" y1="256" y2="256"><stop stop-opacity="1" stop-color="#00f38d" offset="0"/><stop stop-opacity="1" stop-color="#ffffff" offset="0"/></linearGradient><path xmlns="http://www.w3.org/2000/svg" d="m512 256c0 141.386719-114.613281 256-256 256s-256-114.613281-256-256 114.613281-256 256-256 256 114.613281 256 256zm0 0" fill="url(#a)" data-original="url(#a)" style=""/><g xmlns="http://www.w3.org/2000/svg" fill="#fff"><path d="m353.160156 85.480469h-158.8125c-22.808594 0-41.359375 18.554687-41.359375 41.359375v54.539062h30v-54.539062c0-6.265625 5.09375-11.359375 11.359375-11.359375h158.8125c6.265625 0 11.359375 5.097656 11.359375 11.359375v258.320312c0 6.265625-5.097656 11.359375-11.359375 11.359375h-158.8125c-6.265625 0-11.359375-5.097656-11.359375-11.359375v-54.539062h-30v54.539062c0 22.804688 18.550781 41.359375 41.359375 41.359375h158.8125c22.804688 0 41.359375-18.554687 41.359375-41.359375v-258.320312c0-22.804688-18.554687-41.359375-41.359375-41.359375zm0 0" fill="#231d00" data-original="#ffffff" style="" class=""/><path d="m192.902344 299.492188 21.214844 21.214843 64.703124-64.707031-64.703124-64.707031-21.214844 21.214843 28.492187 28.492188h-167.914062v30h167.914062zm0 0" fill="#231d00" data-original="#ffffff" style="" class=""/></g></g></svg>
