<?xml version="1.0"?>
<svg xmlns="http://www.w3.org/2000/svg" xmlns:xlink="http://www.w3.org/1999/xlink" xmlns:svgjs="http://svgjs.com/svgjs" version="1.1" width="512" height="512" x="0" y="0" viewBox="0 0 512 512" style="enable-background:new 0 0 512 512" xml:space="preserve" class=""><g><g xmlns="http://www.w3.org/2000/svg"><path d="m455.392 151.383v-151.383h-398.784v151.383h-56.608v360.617h512v-360.617zm-314.512 210.517-110.88 101.12v-196.601zm22.899 19.718 92.221 79.414 92.144-79.347 109.999 100.315h-404.435zm207.264-19.652 110.957-95.547v196.737zm110.957-180.583v45.445l-26.608 22.913v-68.358zm-56.608-151.383v245.575l-169.392 145.867-169.392-145.867v-245.575zm-368.784 151.383v68.358l-26.608-22.913v-45.445z" fill="#ffffff" data-original="#000000" style="" class=""/><path d="m272.879 309.868h51.359c29.723 0 53.904-24.181 53.904-53.904v-66.086h-105.367v29.966h-2.397c-25.602 0-46.431-20.829-46.431-46.431v-2.558h29.868v-111.851h-66.054c-29.723 0-53.904 24.181-53.904 53.904v57.938c0 76.657 62.366 139.022 139.022 139.022zm-109.022-196.96c0-13.181 10.724-23.904 23.904-23.904h36.054v51.851h-29.868v32.558c0 42.144 34.287 76.431 76.431 76.431h32.397v-29.966h45.367v36.086c0 13.181-10.724 23.904-23.904 23.904h-51.359c-60.114 0-109.021-48.907-109.021-109.021v-57.939z" fill="#ffffff" data-original="#000000" style="" class=""/></g></g></svg>
